<?xml version="1.0" standalone="no"?><!-- Generator: Gravit.io --><svg xmlns="http://www.w3.org/2000/svg" xmlns:xlink="http://www.w3.org/1999/xlink" style="isolation:isolate" viewBox="106.546 209.292 73.573 50.087" width="73.573" height="50.087"><g id="Grupo"><g id="Grupo"><g id="black"><g id="g5720"><path d=" M 141.453 209.292 C 135.175 209.292 129.864 212.62 127.309 217.325 C 125.95 216.497 124.375 215.892 122.607 215.892 C 118.124 215.892 114.546 219.04 114.294 222.959 C 109.81 224.394 106.546 228.101 106.546 232.559 C 106.546 238.242 111.754 242.859 118.169 242.859 L 125.306 242.859 L 125.306 240.725 L 118.169 240.725 C 113.055 240.725 108.953 237.09 108.953 232.559 C 108.953 228.787 111.823 225.614 115.724 224.659 L 116.627 224.459 L 116.589 223.592 C 116.583 223.443 116.589 223.366 116.589 223.359 C 116.589 220.396 119.263 218.025 122.607 218.025 C 124.279 218.025 125.804 218.623 126.896 219.592 L 128.212 220.792 L 128.851 219.225 C 130.744 214.692 135.666 211.425 141.453 211.425 C 148.88 211.425 154.881 216.745 154.881 223.325 C 154.881 223.811 154.838 224.293 154.768 224.792 L 154.58 225.992 L 155.934 225.992 L 156.01 225.992 C 160.613 225.992 164.322 229.28 164.322 233.359 C 164.322 237.437 160.613 240.725 156.01 240.725 L 147.969 240.725 L 147.969 242.859 L 156.01 242.859 C 161.914 242.859 166.73 238.59 166.73 233.359 C 166.73 228.505 162.527 224.648 157.213 224.092 C 157.232 223.835 157.288 223.592 157.288 223.325 C 157.288 215.592 150.181 209.292 141.453 209.292 L 141.453 209.292 Z " fill="rgb(26,26,26)"/><path d=" M 138.141 223.098 L 137.675 223.331 L 128.075 228.031 L 127.475 228.331 L 127.475 228.998 L 127.475 230.464 L 127.475 232.264 L 129.608 231.264 L 129.608 230.464 L 129.608 229.664 L 138.141 225.464 L 146.675 229.664 L 146.675 244.331 L 141.341 244.331 L 141.341 246.464 L 147.741 246.464 L 148.808 246.464 L 148.808 245.398 L 148.808 228.998 L 148.808 228.331 L 148.208 228.031 L 138.608 223.331 L 138.141 223.098 Z  M 131.741 231.631 L 131.275 231.831 L 123.808 235.364 L 123.208 235.631 L 123.208 236.331 L 123.208 247.531 L 123.208 248.598 L 124.275 248.598 L 139.208 248.598 L 140.275 248.598 L 140.275 247.531 L 140.275 236.331 L 140.275 235.631 L 139.675 235.364 L 132.208 231.831 L 131.741 231.631 Z  M 131.741 233.998 L 138.141 236.998 L 138.141 246.464 L 125.341 246.464 L 125.341 236.998 L 131.741 233.998 Z " fill="rgb(26,26,26)"/></g></g></g><g transform="matrix(1,0,0,1,126.191,233.817)"><text transform="matrix(1,0,0,1,0,10.509)" style="font-family:&quot;Overpass Mono&quot;;font-weight:400;font-size:8px;font-style:normal;fill:#000000;stroke:none;">do</text><text transform="matrix(1,0,0,1,0,20.637)" style="font-family:&quot;Overpass Mono&quot;;font-weight:400;font-size:8px;font-style:normal;fill:#000000;stroke:none;">condomínio</text></g></g></svg>